<svg width="127" height="20" viewBox="0 0 127 20" fill="none" xmlns="http://www.w3.org/2000/svg">
<path fill-rule="evenodd" clip-rule="evenodd" d="M3.47598 8.4375C2.06443 8.01236 1.57915 6.76925 1.58008 5.3125V0.625C6.11161 1.87651 9.16368 5.35518 9.16368 10C9.16368 14.6448 6.11161 18.1235 1.58008 19.375V14.6875C1.58035 13.2344 2.06859 11.9886 3.47598 11.5625L6.63582 10.3125C6.78917 10.2665 6.95244 10.1582 6.9518 10C6.95155 9.84255 6.78845 9.73324 6.63582 9.6875L3.47598 8.4375ZM16.7473 8.4375C18.1588 8.01236 18.6441 6.76925 18.6432 5.3125V0.625C14.1117 1.87651 11.0596 5.35518 11.0596 10C11.0596 14.6448 14.1117 18.1235 18.6432 19.375V14.6875C18.6429 13.2344 18.1547 11.9886 16.7473 11.5625L13.5875 10.3125C13.4341 10.2665 13.2708 10.1582 13.2715 10C13.2717 9.84255 13.4348 9.73324 13.5875 9.6875L16.7473 8.4375Z" fill="#FF7369"/>
<path fill-rule="evenodd" clip-rule="evenodd" d="M124.797 16.8867V17.5667H119.683V16.8867C120.458 16.8867 120.757 16.3767 120.757 15.0167V10.0667C120.757 8.64266 120.286 7.83466 119.103 7.83466C116.913 7.83466 115.924 12.3487 115.924 13.9607V15.0167C115.924 16.3767 116.225 16.8867 116.997 16.8867V17.5667H111.883V16.8867C112.658 16.8867 112.959 16.3767 112.959 15.0167V4.81666C112.959 3.45666 112.658 2.94666 111.883 2.94666V2.26666H113.299C114.973 2.26666 115.928 2.39466 115.928 4.13666V9.84448C116.379 7.84448 117.839 6.73066 120.011 6.73066C122.183 6.73066 123.728 8.02666 123.728 10.7887V15.0167C123.724 16.3767 124.023 16.8867 124.797 16.8867ZM105.541 16.6547C103.351 16.6547 102.797 14.8187 102.797 12.2347C102.797 9.65266 103.351 7.81466 105.541 7.81466C107.048 7.81466 107.737 8.64466 107.652 10.4827L110.821 10.9107C110.712 8.47266 108.959 6.71066 105.563 6.71066C101.288 6.71066 99.6543 9.36666 99.6543 12.2347C99.6543 15.1047 101.288 17.7607 105.563 17.7607C108.959 17.7607 110.712 15.9907 110.821 13.5607L107.652 13.9927C107.737 15.8267 107.048 16.6547 105.541 16.6547ZM94.8433 9.84933V8.68666C94.8433 7.02866 93.8989 6.92266 92.2143 6.92266H90.7987V7.60266C91.5712 7.60266 91.8725 8.11266 91.8725 9.47266V14.9987C91.8725 16.3587 91.5712 16.8687 90.7987 16.8687V17.5487H95.911V16.8687C95.1385 16.8687 94.8372 16.3587 94.8372 14.9987V12.9107C94.8401 11.9351 95.1204 10.9801 95.6461 10.1547C95.8016 9.90682 96.0752 9.75566 96.3701 9.75466H98.5157L99.6543 6.71066H99.3105C97.829 6.71451 96.3073 7.55247 95.5839 8.72443L94.8433 9.84933ZM88.6449 14.9107V11.9387C88.6449 8.13866 87.2475 6.71066 83.7469 6.71066C80.1553 6.71066 78.404 8.39666 78.7094 10.5107L81.5406 10.1107C81.0937 8.65666 81.7995 7.79666 83.4517 7.79666C85.1706 7.79666 85.5791 8.75466 85.6641 10.9427C82.6569 11.2827 78.1007 12.0047 78.1007 15.0867C78.1007 16.8707 79.304 17.7427 81.5608 17.7427C83.4719 17.7427 85.0432 16.9567 85.6863 15.9567V16.1067C85.8137 17.3167 86.9321 17.5307 87.7268 17.5307C88.5216 17.5307 89.3608 17.2327 89.7248 16.6807V15.8807C89.0312 16.2947 88.6449 16.1107 88.6449 14.9107ZM85.6803 13.2107V13.4667C85.6803 14.8667 84.4325 16.6527 82.5861 16.6527C81.5325 16.6527 81.0593 16.1007 81.0593 14.9747C81.0593 13.2527 83.1443 12.3187 85.6803 12.0427V13.2107ZM76.9298 16.8687V17.5487H71.8114V16.8687C72.5839 16.8687 72.8852 16.3587 72.8852 14.9987V10.0467C72.8852 8.62266 72.412 7.81466 71.231 7.81466C69.0388 7.81466 68.0519 12.3727 68.0519 13.9667V14.9987C68.0519 16.3587 68.3512 16.8687 69.1258 16.8687V17.5487H64.0114V16.8687C64.7859 16.8687 65.0852 16.3587 65.0852 14.9987V9.47266C65.0852 8.11266 64.7859 7.60266 64.0114 7.60266V6.92266H65.427C67.1035 6.92266 68.056 7.02866 68.056 8.68666V9.84697C68.5069 7.84697 69.967 6.71066 72.137 6.71066C74.3069 6.71066 75.8539 8.00666 75.8539 10.7687V14.9987C75.8499 16.3587 76.1512 16.8687 76.9298 16.8687ZM56.8464 6.71066H56.8181C52.7573 6.71066 50.9312 9.36666 50.9312 12.2347C50.9312 15.1027 52.7513 17.7607 56.8181 17.7607H56.8464C60.9072 17.7607 62.7333 15.1047 62.7333 12.2347C62.7333 9.36466 60.9072 6.71066 56.8464 6.71066ZM56.8687 16.6527H56.7958C54.6542 16.6107 54.0192 14.8927 54.0577 12.1947C54.0961 9.49666 54.8039 7.79466 56.8322 7.81666C58.8545 7.79466 59.5684 9.47866 59.6089 12.1947C59.6493 14.9107 59.0123 16.6107 56.8687 16.6527ZM48.5793 6.07266V14.9987C48.5793 16.3587 48.8806 16.8687 49.6551 16.8687V17.5487H44.5408V16.8687C45.3133 16.8687 45.6146 16.3587 45.6146 14.9987V6.28666L40.6296 17.5487H37.394L32.2513 6.28666V14.9987C32.2513 16.3587 32.5526 16.8687 33.3251 16.8687V17.5487H29.9297V16.8687C30.7042 16.8687 31.0055 16.3587 31.0055 14.9987V6.07266C31.0055 4.71266 30.7042 4.20266 29.9297 4.20266V3.52266H31.3453C33.493 3.52266 34.2877 3.62866 35.2119 5.64866L40.0027 16.2307L44.6661 5.64866C45.5458 3.69266 46.7289 3.54466 48.2314 3.52266H49.647V4.20266C48.8806 4.20266 48.5793 4.71066 48.5793 6.07266Z" fill="#082864"/>
</svg>
